<!-- Generator: Adobe Illustrator 19.2.1, SVG Export Plug-In  -->
<svg version="1.1"
	 xmlns="http://www.w3.org/2000/svg" xmlns:xlink="http://www.w3.org/1999/xlink" xmlns:a="http://ns.adobe.com/AdobeSVGViewerExtensions/3.0/"
	 x="0px" y="0px" width="147.2px" height="139.8px" viewBox="0 0 147.2 139.8" style="enable-background:new 0 0 147.2 139.8;"
	 xml:space="preserve">
<style type="text/css">
	.st0{fill:#FFFFFF;}
	.st1{fill:#F9B418;}
</style>
<defs>
</defs>
<path class="st0" d="M73.5,8.1l14.2,34.4c2.1,4.9,6.6,8.2,11.9,8.7l40,3.6l-30,26.4c-4,3.5-5.7,8.9-4.5,14.1l9.1,36.9l-33.2-19.5
	c-2.2-1.3-4.7-2-7.3-2c-2.5,0-5.1,0.7-7.3,2l-33,19.4l9-36.9c1.2-5.2-0.6-10.6-4.5-14L7.8,54.9l39.7-3.7c5.4-0.5,10.1-4,12-8.8
	L73.5,8.1"/>
<path class="st1" d="M73.5,0c-2.6,0-5.3,1.4-6.4,4.4L52.6,39.6c-1,2.4-3.3,4.1-5.8,4.3L6.3,47.7c-6,0.6-8.5,8.1-3.9,12.2l30.5,26.8
	c2,1.7,2.8,4.3,2.2,6.8l-9.2,37.6c-1.1,4.7,2.6,8.7,6.8,8.7c1.2,0,2.4-0.3,3.5-1L70,119c1.1-0.6,2.3-1,3.5-1s2.5,0.3,3.5,1
	l33.8,19.8c1.2,0.7,2.4,1,3.6,1c4.2,0,7.9-3.9,6.8-8.6l-9.1-37.6c-0.6-2.6,0.3-5.1,2.2-6.9l30.5-26.8c4.4-4,1.9-11.6-4.2-12.2
	l-40.5-3.8c-2.6-0.2-4.8-1.9-5.8-4.3L79.9,4.4C78.8,1.5,76.1,0,73.5,0L73.5,0z"/>
</svg>
