<svg id="Layer_1" data-name="Layer 1" xmlns="http://www.w3.org/2000/svg" viewBox="0 0 20 18.35"><defs><style>.cls-1{fill:#010101;}</style></defs><title>empty_heart</title><path class="cls-1" d="M994.5,482a5.89,5.89,0,0,1-9,0,5.45,5.45,0,0,0-5.5,5.5c0,3.78,3.4,6.86,8.55,11.54l1.45,1.31,1.45-1.32c5.15-4.67,8.55-7.75,8.55-11.53A5.45,5.45,0,0,0,994.5,482Zm-4.4,15.55-0.1.1-0.1-.1c-4.76-4.31-7.9-7.16-7.9-10a3.42,3.42,0,0,1,3.5-3.5,3.91,3.91,0,0,1,3.57,2.36h1.87A3.88,3.88,0,0,1,994.5,484a3.42,3.42,0,0,1,3.5,3.5C998,490.39,994.86,493.24,990.1,497.55Z" transform="translate(-980 -482)"/></svg>